<svg width="140" height="24" viewBox="0 0 140 24" fill="none" xmlns="http://www.w3.org/2000/svg">
<path d="M8.96 23.852C7.104 23.852 5.504 23.5533 4.16 22.956C2.83733 22.3373 1.62133 21.4093 0.512 20.172L3.776 16.94C4.50133 17.772 5.30133 18.4227 6.176 18.892C7.072 19.34 8.10667 19.564 9.28 19.564C10.3467 19.564 11.168 19.372 11.744 18.988C12.3413 18.604 12.64 18.0707 12.64 17.388C12.64 16.7693 12.448 16.268 12.064 15.884C11.68 15.5 11.168 15.1693 10.528 14.892C9.90933 14.6147 9.216 14.348 8.448 14.092C7.70133 13.836 6.95467 13.548 6.208 13.228C5.46133 12.8867 4.768 12.4707 4.128 11.98C3.50933 11.468 3.008 10.8387 2.624 10.092C2.24 9.324 2.048 8.364 2.048 7.212C2.048 5.82533 2.37867 4.63067 3.04 3.628C3.72267 2.62533 4.66133 1.868 5.856 1.356C7.05067 0.822666 8.42667 0.556 9.984 0.556C11.5627 0.556 13.0027 0.833333 14.304 1.388C15.6267 1.94267 16.7147 2.7 17.568 3.66L14.304 6.892C13.6213 6.188 12.928 5.66533 12.224 5.324C11.5413 4.98267 10.7627 4.812 9.888 4.812C9.01333 4.812 8.32 4.98267 7.808 5.324C7.296 5.644 7.04 6.11333 7.04 6.732C7.04 7.308 7.232 7.77733 7.616 8.14C8 8.48133 8.50133 8.78 9.12 9.036C9.76 9.292 10.4533 9.548 11.2 9.804C11.968 10.06 12.7253 10.3587 13.472 10.7C14.2187 11.0413 14.9013 11.4787 15.52 12.012C16.16 12.524 16.672 13.1853 17.056 13.996C17.44 14.7853 17.632 15.7667 17.632 16.94C17.632 19.0947 16.864 20.7907 15.328 22.028C13.792 23.244 11.6693 23.852 8.96 23.852ZM20.8323 23.5V0.907999H25.8563V23.5H20.8323ZM34.8162 23.5V0.907999H39.8723V23.5H34.8162ZM23.8403 14.06V9.708H36.4803V14.06H23.8403ZM54.9913 23.884C53.2846 23.884 51.7059 23.5853 50.2552 22.988C48.8259 22.3907 47.5673 21.5587 46.4793 20.492C45.3913 19.4253 44.5486 18.188 43.9513 16.78C43.3539 15.3507 43.0553 13.8147 43.0553 12.172C43.0553 10.508 43.3539 8.972 43.9513 7.564C44.5486 6.156 45.3806 4.92933 46.4473 3.884C47.5139 2.81733 48.7619 1.996 50.1913 1.42C51.6419 0.822665 53.2206 0.523998 54.9273 0.523998C56.6126 0.523998 58.1699 0.822665 59.5993 1.42C61.0499 1.996 62.3086 2.81733 63.3753 3.884C64.4633 4.92933 65.3059 6.16667 65.9033 7.596C66.5006 9.004 66.7993 10.54 66.7993 12.204C66.7993 13.8467 66.5006 15.3827 65.9033 16.812C65.3059 18.22 64.4739 19.4573 63.4073 20.524C62.3406 21.5693 61.0819 22.3907 59.6313 22.988C58.2019 23.5853 56.6553 23.884 54.9913 23.884ZM54.9273 19.308C56.2713 19.308 57.4446 19.0093 58.4473 18.412C59.4713 17.8147 60.2606 16.9827 60.8153 15.916C61.3699 14.828 61.6473 13.58 61.6473 12.172C61.6473 11.1053 61.4873 10.1453 61.1673 9.292C60.8473 8.41733 60.3886 7.67067 59.7913 7.052C59.1939 6.412 58.4793 5.932 57.6473 5.612C56.8366 5.27067 55.9299 5.1 54.9273 5.1C53.5833 5.1 52.3993 5.39867 51.3753 5.996C50.3726 6.572 49.5939 7.39333 49.0393 8.46C48.4846 9.50533 48.2073 10.7427 48.2073 12.172C48.2073 13.2387 48.3673 14.2093 48.6873 15.084C49.0073 15.9587 49.4553 16.716 50.0312 17.356C50.6286 17.9747 51.3433 18.4547 52.1753 18.796C53.0073 19.1373 53.9246 19.308 54.9273 19.308ZM73.8285 15.276V11.372H78.6925C79.3112 11.372 79.8765 11.244 80.3885 10.988C80.9005 10.732 81.3058 10.3587 81.6045 9.868C81.9032 9.37733 82.0525 8.78 82.0525 8.076C82.0525 7.39333 81.9032 6.80667 81.6045 6.316C81.3058 5.82533 80.9005 5.452 80.3885 5.196C79.8765 4.94 79.3112 4.812 78.6925 4.812H73.8285V0.907999H79.4285C80.8578 0.907999 82.1485 1.196 83.3005 1.772C84.4525 2.348 85.3592 3.18 86.0205 4.268C86.7032 5.33467 87.0445 6.604 87.0445 8.076C87.0445 9.548 86.7032 10.828 86.0205 11.916C85.3592 12.9827 84.4525 13.8147 83.3005 14.412C82.1485 14.988 80.8578 15.276 79.4285 15.276H73.8285ZM69.9885 23.5V0.907999H75.0125V23.5H69.9885ZM90.05 23.852C89.218 23.852 88.5247 23.564 87.97 22.988C87.4153 22.412 87.138 21.7187 87.138 20.908C87.138 20.0547 87.4153 19.3507 87.97 18.796C88.5247 18.22 89.218 17.932 90.05 17.932C90.9033 17.932 91.5967 18.22 92.13 18.796C92.6847 19.3507 92.962 20.0547 92.962 20.908C92.962 21.7187 92.6847 22.412 92.13 22.988C91.5967 23.564 90.9033 23.852 90.05 23.852ZM106.709 23.852C105.023 23.852 103.455 23.564 102.005 22.988C100.575 22.3907 99.3165 21.5587 98.2285 20.492C97.1618 19.4253 96.3298 18.188 95.7325 16.78C95.1352 15.3507 94.8365 13.8147 94.8365 12.172C94.8365 10.5293 95.1352 9.004 95.7325 7.596C96.3298 6.16667 97.1618 4.92933 98.2285 3.884C99.2952 2.83867 100.543 2.028 101.973 1.452C103.423 0.854666 104.991 0.556 106.677 0.556C108.469 0.556 110.058 0.843999 111.444 1.42C112.853 1.996 114.079 2.78533 115.125 3.788L111.765 7.18C111.167 6.54 110.442 6.03867 109.589 5.676C108.757 5.31333 107.786 5.132 106.677 5.132C105.695 5.132 104.789 5.30267 103.957 5.644C103.146 5.964 102.442 6.43333 101.845 7.052C101.269 7.67067 100.81 8.41733 100.469 9.292C100.149 10.1667 99.9885 11.1267 99.9885 12.172C99.9885 13.2387 100.149 14.2093 100.469 15.084C100.81 15.9587 101.269 16.7053 101.845 17.324C102.442 17.9427 103.146 18.4227 103.957 18.764C104.789 19.1053 105.695 19.276 106.677 19.276C107.829 19.276 108.831 19.0947 109.685 18.732C110.538 18.3693 111.274 17.868 111.892 17.228L115.285 20.62C114.197 21.6227 112.949 22.412 111.541 22.988C110.154 23.564 108.543 23.852 106.709 23.852ZM127.929 23.884C126.222 23.884 124.643 23.5853 123.193 22.988C121.763 22.3907 120.505 21.5587 119.417 20.492C118.329 19.4253 117.486 18.188 116.889 16.78C116.291 15.3507 115.993 13.8147 115.993 12.172C115.993 10.508 116.291 8.972 116.889 7.564C117.486 6.156 118.318 4.92933 119.385 3.884C120.451 2.81733 121.699 1.996 123.129 1.42C124.579 0.822665 126.158 0.523998 127.865 0.523998C129.55 0.523998 131.107 0.822665 132.537 1.42C133.987 1.996 135.246 2.81733 136.313 3.884C137.401 4.92933 138.243 6.16667 138.841 7.596C139.438 9.004 139.737 10.54 139.737 12.204C139.737 13.8467 139.438 15.3827 138.841 16.812C138.243 18.22 137.411 19.4573 136.345 20.524C135.278 21.5693 134.019 22.3907 132.569 22.988C131.139 23.5853 129.593 23.884 127.929 23.884ZM127.865 19.308C129.209 19.308 130.382 19.0093 131.385 18.412C132.409 17.8147 133.198 16.9827 133.753 15.916C134.307 14.828 134.585 13.58 134.585 12.172C134.585 11.1053 134.425 10.1453 134.105 9.292C133.785 8.41733 133.326 7.67067 132.729 7.052C132.131 6.412 131.417 5.932 130.585 5.612C129.774 5.27067 128.867 5.1 127.865 5.1C126.521 5.1 125.337 5.39867 124.313 5.996C123.31 6.572 122.531 7.39333 121.977 8.46C121.422 9.50533 121.145 10.7427 121.145 12.172C121.145 13.2387 121.305 14.2093 121.625 15.084C121.945 15.9587 122.393 16.716 122.969 17.356C123.566 17.9747 124.281 18.4547 125.113 18.796C125.945 19.1373 126.862 19.308 127.865 19.308Z" fill="white"/>
</svg>
